<svg xmlns="http://www.w3.org/2000/svg" viewBox="0 0 512 512">
  <!-- Dark warm background with iOS-style rounded corners -->
  <rect width="512" height="512" rx="115" fill="#111"/>
  <!-- Rosary beads ring -->
  <circle cx="256" cy="256" r="148" fill="none" stroke="#3a2a0a" stroke-width="12"/>
  <circle cx="256" cy="108" r="10" fill="#e8a020"/>
  <circle cx="308" cy="118" r="8" fill="#c88a10"/>
  <circle cx="354" cy="147" r="8" fill="#c88a10"/>
  <circle cx="387" cy="192" r="8" fill="#c88a10"/>
  <circle cx="403" cy="246" r="8" fill="#c88a10"/>
  <circle cx="398" cy="302" r="8" fill="#c88a10"/>
  <circle cx="371" cy="352" r="8" fill="#c88a10"/>
  <circle cx="327" cy="389" r="8" fill="#c88a10"/>
  <circle cx="274" cy="405" r="8" fill="#c88a10"/>
  <circle cx="218" cy="399" r="8" fill="#c88a10"/>
  <circle cx="168" cy="373" r="8" fill="#c88a10"/>
  <circle cx="130" cy="330" r="8" fill="#c88a10"/>
  <circle cx="110" cy="278" r="8" fill="#c88a10"/>
  <circle cx="112" cy="222" r="8" fill="#c88a10"/>
  <circle cx="137" cy="172" r="8" fill="#c88a10"/>
  <circle cx="178" cy="136" r="8" fill="#c88a10"/>
  <circle cx="228" cy="114" r="8" fill="#c88a10"/>
  <!-- Cross — vertical bar -->
  <rect x="236" y="156" width="40" height="220" rx="8" fill="#e8a020"/>
  <!-- Cross — horizontal bar -->
  <rect x="164" y="216" width="184" height="40" rx="8" fill="#e8a020"/>
</svg>
